<svg width="41" height="47" viewBox="0 0 41 47" fill="none" xmlns="http://www.w3.org/2000/svg">
<path fill-rule="evenodd" clip-rule="evenodd" d="M0 19.8699C0 8.87914 8.99863 0 20.061 0C31.1233 0 40.122 8.87914 40.122 19.8699C40.122 26.7056 36.1356 33.4522 31.9109 38.3632C29.7729 40.8484 27.5037 42.9465 25.5021 44.4387C24.5029 45.1835 23.5426 45.7982 22.6757 46.2348C21.8631 46.644 20.935 47 20.061 47C19.1869 47 18.2589 46.644 17.4463 46.2348C16.5794 45.7982 15.619 45.1835 14.6199 44.4387C12.6183 42.9465 10.3491 40.8484 8.2111 38.3632C3.98634 33.4522 0 26.7056 0 19.8699ZM20.061 25.7932C16.2623 25.7932 13.1829 22.7138 13.1829 18.9152C13.1829 15.1165 16.2623 12.0371 20.061 12.0371C23.8596 12.0371 26.939 15.1165 26.939 18.9152C26.939 22.7138 23.8596 25.7932 20.061 25.7932Z" fill="#2B3F6C"/>
</svg>
