<svg width="42" height="43" viewBox="0 0 42 43" fill="none" xmlns="http://www.w3.org/2000/svg">
<path d="M37.4372 40.9796C32.8885 45.5283 21.2393 41.2542 11.4182 31.433C1.597 21.6119 -2.67714 9.96274 1.8716 5.41397L4.8666 2.41897C6.93421 0.351358 10.3411 0.406013 12.4762 2.54105L17.1152 7.18004C19.2502 9.31508 19.3049 12.722 17.2372 14.7896L16.5939 15.4329C15.4776 16.5492 15.3684 18.3501 16.4057 19.6071C17.4062 20.8196 18.4849 22.0272 19.6544 23.1968C20.8239 24.3663 22.0316 25.445 23.2441 26.4455C24.5011 27.4828 26.3019 27.3736 27.4183 26.2572L28.0616 25.6139C30.1292 23.5463 33.5361 23.601 35.6711 25.736L40.3101 30.375C42.4452 32.51 42.4998 35.917 40.4322 37.9846L37.4372 40.9796Z" fill="#2B3F6C"/>
</svg>
