<svg width="29" height="20" viewBox="0 0 29 20" fill="none" xmlns="http://www.w3.org/2000/svg">
<path fill-rule="evenodd" clip-rule="evenodd" d="M14.75 0.157227C8.78519 0.157227 3.59623 3.47034 0.927584 8.34999C0.357481 9.39243 0.357471 10.6526 0.927558 11.695C3.59617 16.5748 8.7852 19.888 14.75 19.888C20.7148 19.888 25.9038 16.5749 28.5724 11.6952C29.1425 10.6528 29.1425 9.39266 28.5724 8.35021C25.9038 3.47044 20.7148 0.157227 14.75 0.157227ZM14.75 6.73412C12.9338 6.73412 11.4615 8.20642 11.4615 10.0226C11.4615 11.8387 12.9338 13.311 14.75 13.311C15.7445 13.311 16.6359 12.8696 17.2389 12.1719C16.2361 11.9704 15.4808 11.0847 15.4808 10.0226C15.4808 8.96044 16.2361 8.07472 17.2389 7.87326C16.6359 7.1756 15.7445 6.73412 14.75 6.73412ZM9.26923 10.0226C9.26923 6.99564 11.7231 4.54181 14.75 4.54181C17.7769 4.54181 20.2308 6.99564 20.2308 10.0226C20.2308 13.0495 17.7769 15.5034 14.75 15.5034C11.7231 15.5034 9.26923 13.0495 9.26923 10.0226Z" fill="white"/>
</svg>
