<svg width="48" height="39" viewBox="0 0 48 39" fill="none" xmlns="http://www.w3.org/2000/svg">
<path fill-rule="evenodd" clip-rule="evenodd" d="M0.828674 12.9164C0.828674 5.94898 6.47688 0.300781 13.4443 0.300781H35.3845C42.3519 0.300781 48.0001 5.94898 48.0001 12.9164V26.0805C48.0001 33.0479 42.3519 38.6961 35.3845 38.6961H13.4443C6.47688 38.6961 0.828674 33.0479 0.828674 26.0805V12.9164ZM14.4561 15.2449C14.0223 14.8984 13.3899 14.9692 13.0434 15.4029C12.6969 15.8367 12.7676 16.4691 13.2014 16.8156L21.5847 23.5124C23.2396 24.8343 25.5892 24.8343 27.244 23.5124L35.6274 16.8156C36.0611 16.4691 36.1318 15.8367 35.7854 15.4029C35.4389 14.9692 34.8064 14.8984 34.3727 15.2449L25.9893 21.9417C25.0682 22.6774 23.7605 22.6774 22.8394 21.9417L14.4561 15.2449Z" fill="#2B3F6C"/>
</svg>
