<svg width="340" height="33" viewBox="0 0 340 33" fill="none" xmlns="http://www.w3.org/2000/svg">
<path d="M10.608 26.384C7.42933 26.384 4.944 25.4987 3.152 23.728C1.36 21.9573 0.464 19.4293 0.464 16.144V3.6H5.648V15.952C5.648 18.0853 6.08533 19.6213 6.96 20.56C7.83467 21.4987 9.06133 21.968 10.64 21.968C12.2187 21.968 13.4453 21.4987 14.32 20.56C15.1947 19.6213 15.632 18.0853 15.632 15.952V3.6H20.752V16.144C20.752 19.4293 19.856 21.9573 18.064 23.728C16.272 25.4987 13.7867 26.384 10.608 26.384ZM35.9868 8.528C37.3521 8.528 38.5681 8.80533 39.6348 9.36C40.7228 9.89333 41.5761 10.7253 42.1948 11.856C42.8134 12.9653 43.1228 14.3947 43.1228 16.144V26H38.1308V16.912C38.1308 15.5253 37.8214 14.5013 37.2028 13.84C36.6054 13.1787 35.7521 12.848 34.6428 12.848C33.8534 12.848 33.1388 13.0187 32.4988 13.36C31.8801 13.68 31.3894 14.1813 31.0268 14.864C30.6854 15.5467 30.5148 16.4213 30.5148 17.488V26H25.5228V8.784H30.2908V13.552L29.3948 12.112C30.0134 10.96 30.8988 10.0747 32.0508 9.456C33.2028 8.83733 34.5148 8.528 35.9868 8.528ZM47.6478 26V8.784H52.6398V26H47.6478ZM50.1438 6.384C49.2264 6.384 48.4798 6.11733 47.9038 5.584C47.3278 5.05067 47.0398 4.38933 47.0398 3.6C47.0398 2.81067 47.3278 2.14933 47.9038 1.616C48.4798 1.08267 49.2264 0.815998 50.1438 0.815998C51.0611 0.815998 51.8078 1.072 52.3838 1.584C52.9598 2.07467 53.2478 2.71467 53.2478 3.504C53.2478 4.336 52.9598 5.02933 52.3838 5.584C51.8291 6.11733 51.0824 6.384 50.1438 6.384ZM64.3128 26.256C62.2861 26.256 60.7074 25.744 59.5768 24.72C58.4461 23.6747 57.8808 22.128 57.8808 20.08V4.976H62.8728V20.016C62.8728 20.7413 63.0648 21.3067 63.4488 21.712C63.8328 22.096 64.3554 22.288 65.0168 22.288C65.8061 22.288 66.4781 22.0747 67.0328 21.648L68.3768 25.168C67.8648 25.5307 67.2461 25.808 66.5208 26C65.8168 26.1707 65.0808 26.256 64.3128 26.256ZM55.2248 13.008V9.168H67.1608V13.008H55.2248ZM79.1918 26.256C77.2291 26.256 75.5011 25.872 74.0078 25.104C72.5358 24.336 71.3944 23.2907 70.5838 21.968C69.7731 20.624 69.3678 19.0987 69.3678 17.392C69.3678 15.664 69.7624 14.1387 70.5518 12.816C71.3624 11.472 72.4611 10.4267 73.8478 9.68C75.2344 8.912 76.8024 8.528 78.5518 8.528C80.2371 8.528 81.7518 8.89067 83.0958 9.616C84.4611 10.32 85.5384 11.344 86.3278 12.688C87.1171 14.0107 87.5118 15.6 87.5118 17.456C87.5118 17.648 87.5011 17.872 87.4798 18.128C87.4584 18.3627 87.4371 18.5867 87.4158 18.8H73.4318V15.888H84.7917L82.8718 16.752C82.8718 15.856 82.6904 15.0773 82.3278 14.416C81.9651 13.7547 81.4638 13.2427 80.8238 12.88C80.1838 12.496 79.4371 12.304 78.5838 12.304C77.7304 12.304 76.9731 12.496 76.3118 12.88C75.6718 13.2427 75.1704 13.7653 74.8078 14.448C74.4451 15.1093 74.2638 15.8987 74.2638 16.816V17.584C74.2638 18.5227 74.4664 19.3547 74.8718 20.08C75.2984 20.784 75.8851 21.328 76.6318 21.712C77.3998 22.0747 78.2958 22.256 79.3198 22.256C80.2371 22.256 81.0371 22.1173 81.7198 21.84C82.4238 21.5627 83.0638 21.1467 83.6398 20.592L86.2958 23.472C85.5064 24.368 84.5144 25.0613 83.3198 25.552C82.1251 26.0213 80.7491 26.256 79.1918 26.256ZM98.2273 26.256C96.6059 26.256 95.1446 25.8933 93.8433 25.168C92.5419 24.4213 91.5073 23.3867 90.7393 22.064C89.9926 20.7413 89.6193 19.184 89.6193 17.392C89.6193 15.5787 89.9926 14.0107 90.7393 12.688C91.5073 11.3653 92.5419 10.3413 93.8433 9.616C95.1446 8.89067 96.6059 8.528 98.2273 8.528C99.6779 8.528 100.947 8.848 102.035 9.488C103.123 10.128 103.966 11.0987 104.563 12.4C105.161 13.7013 105.459 15.3653 105.459 17.392C105.459 19.3973 105.171 21.0613 104.595 22.384C104.019 23.6853 103.187 24.656 102.099 25.296C101.033 25.936 99.7419 26.256 98.2273 26.256ZM99.0913 22.16C99.9019 22.16 100.638 21.968 101.299 21.584C101.961 21.2 102.483 20.656 102.867 19.952C103.273 19.2267 103.475 18.3733 103.475 17.392C103.475 16.3893 103.273 15.536 102.867 14.832C102.483 14.128 101.961 13.584 101.299 13.2C100.638 12.816 99.9019 12.624 99.0913 12.624C98.2593 12.624 97.5126 12.816 96.8513 13.2C96.1899 13.584 95.6566 14.128 95.2513 14.832C94.8673 15.536 94.6753 16.3893 94.6753 17.392C94.6753 18.3733 94.8673 19.2267 95.2513 19.952C95.6566 20.656 96.1899 21.2 96.8513 21.584C97.5126 21.968 98.2593 22.16 99.0913 22.16ZM103.603 26V22.48L103.699 17.36L103.379 12.272V2.256H108.371V26H103.603ZM113.344 26V3.6H123.52C125.952 3.6 128.096 4.06933 129.952 5.008C131.808 5.92533 133.258 7.216 134.304 8.88C135.349 10.544 135.872 12.5173 135.872 14.8C135.872 17.0613 135.349 19.0347 134.304 20.72C133.258 22.384 131.808 23.6853 129.952 24.624C128.096 25.5413 125.952 26 123.52 26H113.344ZM118.528 21.744H123.264C124.757 21.744 126.048 21.4667 127.135 20.912C128.245 20.336 129.098 19.5253 129.696 18.48C130.314 17.4347 130.624 16.208 130.624 14.8C130.624 13.3707 130.314 12.144 129.696 11.12C129.098 10.0747 128.245 9.27467 127.135 8.72C126.048 8.144 124.757 7.856 123.264 7.856H118.528V21.744ZM147.621 26.256C145.786 26.256 144.154 25.872 142.725 25.104C141.317 24.336 140.197 23.2907 139.365 21.968C138.554 20.624 138.149 19.0987 138.149 17.392C138.149 15.664 138.554 14.1387 139.365 12.816C140.197 11.472 141.317 10.4267 142.725 9.68C144.154 8.912 145.786 8.528 147.621 8.528C149.434 8.528 151.056 8.912 152.485 9.68C153.914 10.4267 155.034 11.4613 155.845 12.784C156.656 14.1067 157.061 15.6427 157.061 17.392C157.061 19.0987 156.656 20.624 155.845 21.968C155.034 23.2907 153.914 24.336 152.485 25.104C151.056 25.872 149.434 26.256 147.621 26.256ZM147.621 22.16C148.453 22.16 149.2 21.968 149.861 21.584C150.522 21.2 151.045 20.656 151.429 19.952C151.813 19.2267 152.005 18.3733 152.005 17.392C152.005 16.3893 151.813 15.536 151.429 14.832C151.045 14.128 150.522 13.584 149.861 13.2C149.2 12.816 148.453 12.624 147.621 12.624C146.789 12.624 146.042 12.816 145.381 13.2C144.72 13.584 144.186 14.128 143.781 14.832C143.397 15.536 143.205 16.3893 143.205 17.392C143.205 18.3733 143.397 19.2267 143.781 19.952C144.186 20.656 144.72 21.2 145.381 21.584C146.042 21.968 146.789 22.16 147.621 22.16ZM160.398 26V2.256H165.39V26H160.398ZM180.199 26.256C178.748 26.256 177.479 25.936 176.391 25.296C175.303 24.656 174.449 23.6853 173.831 22.384C173.233 21.0613 172.935 19.3973 172.935 17.392C172.935 15.3653 173.223 13.7013 173.799 12.4C174.375 11.0987 175.207 10.128 176.295 9.488C177.383 8.848 178.684 8.528 180.199 8.528C181.82 8.528 183.271 8.90133 184.551 9.648C185.852 10.3733 186.876 11.3973 187.623 12.72C188.391 14.0427 188.775 15.6 188.775 17.392C188.775 19.2053 188.391 20.7733 187.623 22.096C186.876 23.4187 185.852 24.4427 184.551 25.168C183.271 25.8933 181.82 26.256 180.199 26.256ZM170.023 32.208V8.784H174.791V12.304L174.695 17.424L175.015 22.512V32.208H170.023ZM179.335 22.16C180.167 22.16 180.903 21.968 181.543 21.584C182.204 21.2 182.727 20.656 183.111 19.952C183.516 19.2267 183.719 18.3733 183.719 17.392C183.719 16.3893 183.516 15.536 183.111 14.832C182.727 14.128 182.204 13.584 181.543 13.2C180.903 12.816 180.167 12.624 179.335 12.624C178.503 12.624 177.756 12.816 177.095 13.2C176.433 13.584 175.911 14.128 175.527 14.832C175.143 15.536 174.951 16.3893 174.951 17.392C174.951 18.3733 175.143 19.2267 175.527 19.952C175.911 20.656 176.433 21.2 177.095 21.584C177.756 21.968 178.503 22.16 179.335 22.16ZM202.581 8.528C203.946 8.528 205.162 8.80533 206.229 9.36C207.317 9.89333 208.17 10.7253 208.789 11.856C209.407 12.9653 209.717 14.3947 209.717 16.144V26H204.725V16.912C204.725 15.5253 204.415 14.5013 203.797 13.84C203.199 13.1787 202.346 12.848 201.237 12.848C200.447 12.848 199.733 13.0187 199.093 13.36C198.474 13.68 197.983 14.1813 197.621 14.864C197.279 15.5467 197.109 16.4213 197.109 17.488V26H192.117V2.256H197.109V13.552L195.989 12.112C196.607 10.96 197.493 10.0747 198.645 9.456C199.797 8.83733 201.109 8.528 202.581 8.528ZM214.242 26V8.784H219.234V26H214.242ZM216.738 6.384C215.82 6.384 215.074 6.11733 214.498 5.584C213.922 5.05067 213.634 4.38933 213.634 3.6C213.634 2.81067 213.922 2.14933 214.498 1.616C215.074 1.08267 215.82 0.815998 216.738 0.815998C217.655 0.815998 218.402 1.072 218.978 1.584C219.554 2.07467 219.842 2.71467 219.842 3.504C219.842 4.336 219.554 5.02933 218.978 5.584C218.423 6.11733 217.676 6.384 216.738 6.384ZM234.331 8.528C235.696 8.528 236.912 8.80533 237.979 9.36C239.067 9.89333 239.92 10.7253 240.539 11.856C241.157 12.9653 241.467 14.3947 241.467 16.144V26H236.475V16.912C236.475 15.5253 236.165 14.5013 235.547 13.84C234.949 13.1787 234.096 12.848 232.987 12.848C232.197 12.848 231.483 13.0187 230.843 13.36C230.224 13.68 229.733 14.1813 229.371 14.864C229.029 15.5467 228.859 16.4213 228.859 17.488V26H223.867V8.784H228.635V13.552L227.739 12.112C228.357 10.96 229.243 10.0747 230.395 9.456C231.547 8.83733 232.859 8.528 234.331 8.528ZM251.784 26.256C250.312 26.256 248.893 26.0853 247.528 25.744C246.184 25.3813 245.117 24.9333 244.328 24.4L245.992 20.816C246.781 21.3067 247.709 21.712 248.776 22.032C249.864 22.3307 250.93 22.48 251.976 22.48C253.128 22.48 253.938 22.3413 254.408 22.064C254.898 21.7867 255.144 21.4027 255.144 20.912C255.144 20.5067 254.952 20.208 254.568 20.016C254.205 19.8027 253.714 19.6427 253.095 19.536C252.477 19.4293 251.794 19.3227 251.048 19.216C250.322 19.1093 249.586 18.9707 248.84 18.8C248.093 18.608 247.41 18.3307 246.792 17.968C246.173 17.6053 245.672 17.1147 245.288 16.496C244.925 15.8773 244.743 15.0773 244.743 14.096C244.743 13.008 245.053 12.048 245.672 11.216C246.312 10.384 247.229 9.73333 248.424 9.264C249.618 8.77333 251.048 8.528 252.712 8.528C253.885 8.528 255.08 8.656 256.296 8.912C257.512 9.168 258.525 9.54133 259.336 10.032L257.672 13.584C256.84 13.0933 255.997 12.7627 255.144 12.592C254.312 12.4 253.501 12.304 252.712 12.304C251.602 12.304 250.792 12.4533 250.28 12.752C249.768 13.0507 249.512 13.4347 249.512 13.904C249.512 14.3307 249.693 14.6507 250.056 14.864C250.44 15.0773 250.941 15.248 251.56 15.376C252.178 15.504 252.85 15.6213 253.576 15.728C254.322 15.8133 255.069 15.952 255.816 16.144C256.562 16.336 257.234 16.6133 257.832 16.976C258.45 17.3173 258.952 17.7973 259.336 18.416C259.72 19.0133 259.912 19.8027 259.912 20.784C259.912 21.8507 259.592 22.8 258.952 23.632C258.312 24.4427 257.384 25.0827 256.168 25.552C254.973 26.0213 253.512 26.256 251.784 26.256ZM264.88 26.256C264.026 26.256 263.29 25.968 262.672 25.392C262.074 24.7947 261.776 24.0373 261.776 23.12C261.776 22.2027 262.074 21.4667 262.672 20.912C263.29 20.336 264.026 20.048 264.88 20.048C265.754 20.048 266.49 20.336 267.088 20.912C267.685 21.4667 267.984 22.2027 267.984 23.12C267.984 24.0373 267.685 24.7947 267.088 25.392C266.49 25.968 265.754 26.256 264.88 26.256ZM279.499 26.256C277.643 26.256 275.99 25.8827 274.539 25.136C273.088 24.368 271.947 23.312 271.115 21.968C270.304 20.624 269.899 19.0987 269.899 17.392C269.899 15.664 270.304 14.1387 271.115 12.816C271.947 11.472 273.088 10.4267 274.539 9.68C275.99 8.912 277.643 8.528 279.499 8.528C281.312 8.528 282.891 8.912 284.235 9.68C285.579 10.4267 286.571 11.504 287.211 12.912L283.339 14.992C282.891 14.1813 282.326 13.584 281.643 13.2C280.982 12.816 280.256 12.624 279.467 12.624C278.614 12.624 277.846 12.816 277.163 13.2C276.48 13.584 275.936 14.128 275.531 14.832C275.147 15.536 274.955 16.3893 274.955 17.392C274.955 18.3947 275.147 19.248 275.531 19.952C275.936 20.656 276.48 21.2 277.163 21.584C277.846 21.968 278.614 22.16 279.467 22.16C280.256 22.16 280.982 21.9787 281.643 21.616C282.326 21.232 282.891 20.624 283.339 19.792L287.211 21.904C286.571 23.2907 285.579 24.368 284.235 25.136C282.891 25.8827 281.312 26.256 279.499 26.256ZM298.059 26.256C296.224 26.256 294.592 25.872 293.163 25.104C291.755 24.336 290.635 23.2907 289.803 21.968C288.992 20.624 288.587 19.0987 288.587 17.392C288.587 15.664 288.992 14.1387 289.803 12.816C290.635 11.472 291.755 10.4267 293.163 9.68C294.592 8.912 296.224 8.528 298.059 8.528C299.872 8.528 301.493 8.912 302.923 9.68C304.352 10.4267 305.472 11.4613 306.283 12.784C307.093 14.1067 307.499 15.6427 307.499 17.392C307.499 19.0987 307.093 20.624 306.283 21.968C305.472 23.2907 304.352 24.336 302.923 25.104C301.493 25.872 299.872 26.256 298.059 26.256ZM298.059 22.16C298.891 22.16 299.637 21.968 300.299 21.584C300.96 21.2 301.483 20.656 301.867 19.952C302.251 19.2267 302.443 18.3733 302.443 17.392C302.443 16.3893 302.251 15.536 301.867 14.832C301.483 14.128 300.96 13.584 300.299 13.2C299.637 12.816 298.891 12.624 298.059 12.624C297.227 12.624 296.48 12.816 295.819 13.2C295.157 13.584 294.624 14.128 294.219 14.832C293.835 15.536 293.643 16.3893 293.643 17.392C293.643 18.3733 293.835 19.2267 294.219 19.952C294.624 20.656 295.157 21.2 295.819 21.584C296.48 21.968 297.227 22.16 298.059 22.16ZM332.883 8.528C334.249 8.528 335.454 8.80533 336.499 9.36C337.566 9.89333 338.398 10.7253 338.995 11.856C339.614 12.9653 339.923 14.3947 339.923 16.144V26H334.931V16.912C334.931 15.5253 334.643 14.5013 334.067 13.84C333.491 13.1787 332.681 12.848 331.635 12.848C330.91 12.848 330.259 13.0187 329.683 13.36C329.107 13.68 328.659 14.1707 328.339 14.832C328.019 15.4933 327.859 16.336 327.859 17.36V26H322.867V16.912C322.867 15.5253 322.579 14.5013 322.003 13.84C321.449 13.1787 320.649 12.848 319.603 12.848C318.878 12.848 318.227 13.0187 317.651 13.36C317.075 13.68 316.627 14.1707 316.307 14.832C315.987 15.4933 315.827 16.336 315.827 17.36V26H310.835V8.784H315.603V13.488L314.707 12.112C315.305 10.9387 316.147 10.0533 317.235 9.456C318.345 8.83733 319.603 8.528 321.011 8.528C322.59 8.528 323.966 8.93333 325.139 9.744C326.334 10.5333 327.123 11.7493 327.507 13.392L325.747 12.912C326.323 11.568 327.241 10.5013 328.499 9.712C329.779 8.92267 331.241 8.528 332.883 8.528Z" fill="url(#paint0_linear_34_412)"/>
<defs>
<linearGradient id="paint0_linear_34_412" x1="368.556" y1="14.5" x2="-18.8434" y2="14.5" gradientUnits="userSpaceOnUse">
<stop stop-color="#FF0089"/>
<stop offset="1" stop-color="#00B3FF"/>
</linearGradient>
</defs>
</svg>
